<mxfile host="Electron" modified="2023-08-04T14:25:45.914Z" agent="Mozilla/5.0 (Windows NT 10.0; Win64; x64) AppleWebKit/537.36 (KHTML, like Gecko) draw.io/21.6.1 Chrome/112.0.5615.204 Electron/24.6.1 Safari/537.36" etag="sQbXdPulv5fuWHjVHOQM" version="21.6.1" type="device">
  <diagram name="第 1 页" id="7RR3wLj8slbnw60flWYK">
    <mxGraphModel dx="2261" dy="844" grid="1" gridSize="10" guides="1" tooltips="1" connect="1" arrows="1" fold="1" page="1" pageScale="1" pageWidth="827" pageHeight="1169" math="0" shadow="0">
      <root>
        <mxCell id="0" />
        <mxCell id="1" parent="0" />
        <mxCell id="-6s6Hm--NbPv0Q42MaY7-7" value="" style="rounded=1;whiteSpace=wrap;html=1;fillColor=#fff2cc;strokeColor=#d6b656;" vertex="1" parent="1">
          <mxGeometry x="707" y="305" width="313" height="270" as="geometry" />
        </mxCell>
        <mxCell id="-6s6Hm--NbPv0Q42MaY7-6" value="" style="rounded=1;whiteSpace=wrap;html=1;fillColor=#f5f5f5;fontColor=#333333;strokeColor=#666666;" vertex="1" parent="1">
          <mxGeometry x="218" y="240" width="410" height="360" as="geometry" />
        </mxCell>
        <mxCell id="-6s6Hm--NbPv0Q42MaY7-2" value="Queue 1" style="rounded=0;whiteSpace=wrap;html=1;fillColor=#e1d5e7;strokeColor=#9673a6;" vertex="1" parent="1">
          <mxGeometry x="270" y="310" width="290" height="50" as="geometry" />
        </mxCell>
        <mxCell id="-6s6Hm--NbPv0Q42MaY7-3" value="Queue 2" style="rounded=0;whiteSpace=wrap;html=1;fillColor=#e1d5e7;strokeColor=#9673a6;" vertex="1" parent="1">
          <mxGeometry x="270" y="380" width="290" height="50" as="geometry" />
        </mxCell>
        <mxCell id="-6s6Hm--NbPv0Q42MaY7-12" style="rounded=0;orthogonalLoop=1;jettySize=auto;html=1;exitX=1;exitY=0.5;exitDx=0;exitDy=0;entryX=0;entryY=0.667;entryDx=0;entryDy=0;entryPerimeter=0;" edge="1" parent="1" source="-6s6Hm--NbPv0Q42MaY7-4" target="-6s6Hm--NbPv0Q42MaY7-8">
          <mxGeometry relative="1" as="geometry" />
        </mxCell>
        <mxCell id="-6s6Hm--NbPv0Q42MaY7-4" value="Queue 3" style="rounded=0;whiteSpace=wrap;html=1;fillColor=#e1d5e7;strokeColor=#9673a6;" vertex="1" parent="1">
          <mxGeometry x="269" y="446" width="290" height="50" as="geometry" />
        </mxCell>
        <mxCell id="-6s6Hm--NbPv0Q42MaY7-13" style="rounded=0;orthogonalLoop=1;jettySize=auto;html=1;exitX=1;exitY=0.5;exitDx=0;exitDy=0;entryX=0.005;entryY=0.64;entryDx=0;entryDy=0;entryPerimeter=0;" edge="1" parent="1" source="-6s6Hm--NbPv0Q42MaY7-5" target="-6s6Hm--NbPv0Q42MaY7-9">
          <mxGeometry relative="1" as="geometry" />
        </mxCell>
        <mxCell id="-6s6Hm--NbPv0Q42MaY7-5" value="Queue 4" style="rounded=0;whiteSpace=wrap;html=1;fillColor=#e1d5e7;strokeColor=#9673a6;" vertex="1" parent="1">
          <mxGeometry x="269" y="510" width="290" height="50" as="geometry" />
        </mxCell>
        <mxCell id="-6s6Hm--NbPv0Q42MaY7-8" value="Consumer A1" style="rounded=0;whiteSpace=wrap;html=1;fillColor=#d5e8d4;strokeColor=#82b366;" vertex="1" parent="1">
          <mxGeometry x="760" y="360" width="220" height="60" as="geometry" />
        </mxCell>
        <mxCell id="-6s6Hm--NbPv0Q42MaY7-9" value="Consumer A2" style="rounded=0;whiteSpace=wrap;html=1;fillColor=#d5e8d4;strokeColor=#82b366;" vertex="1" parent="1">
          <mxGeometry x="760" y="460" width="220" height="50" as="geometry" />
        </mxCell>
        <mxCell id="-6s6Hm--NbPv0Q42MaY7-10" value="" style="endArrow=classic;html=1;rounded=0;entryX=0;entryY=0.5;entryDx=0;entryDy=0;" edge="1" parent="1" target="-6s6Hm--NbPv0Q42MaY7-8">
          <mxGeometry width="50" height="50" relative="1" as="geometry">
            <mxPoint x="560" y="340" as="sourcePoint" />
            <mxPoint x="610" y="290" as="targetPoint" />
          </mxGeometry>
        </mxCell>
        <mxCell id="-6s6Hm--NbPv0Q42MaY7-11" style="rounded=0;orthogonalLoop=1;jettySize=auto;html=1;entryX=0;entryY=0.5;entryDx=0;entryDy=0;exitX=1;exitY=0.5;exitDx=0;exitDy=0;" edge="1" parent="1" source="-6s6Hm--NbPv0Q42MaY7-3" target="-6s6Hm--NbPv0Q42MaY7-9">
          <mxGeometry relative="1" as="geometry" />
        </mxCell>
        <mxCell id="-6s6Hm--NbPv0Q42MaY7-14" value="&lt;b&gt;&lt;font style=&quot;font-size: 19px;&quot;&gt;Topic A&lt;/font&gt;&lt;/b&gt;" style="text;html=1;strokeColor=none;fillColor=none;align=center;verticalAlign=middle;whiteSpace=wrap;rounded=0;" vertex="1" parent="1">
          <mxGeometry x="360" y="270" width="126" height="30" as="geometry" />
        </mxCell>
        <mxCell id="-6s6Hm--NbPv0Q42MaY7-15" value="" style="rounded=1;whiteSpace=wrap;html=1;fillColor=#ffe6cc;strokeColor=#d79b00;" vertex="1" parent="1">
          <mxGeometry x="-158" y="245" width="200" height="350" as="geometry" />
        </mxCell>
        <mxCell id="-6s6Hm--NbPv0Q42MaY7-19" style="rounded=0;orthogonalLoop=1;jettySize=auto;html=1;entryX=0;entryY=0.5;entryDx=0;entryDy=0;" edge="1" parent="1" source="-6s6Hm--NbPv0Q42MaY7-16" target="-6s6Hm--NbPv0Q42MaY7-2">
          <mxGeometry relative="1" as="geometry" />
        </mxCell>
        <mxCell id="-6s6Hm--NbPv0Q42MaY7-25" value="Message 1" style="edgeLabel;html=1;align=center;verticalAlign=middle;resizable=0;points=[];" vertex="1" connectable="0" parent="-6s6Hm--NbPv0Q42MaY7-19">
          <mxGeometry x="-0.1555" relative="1" as="geometry">
            <mxPoint x="-12" as="offset" />
          </mxGeometry>
        </mxCell>
        <mxCell id="-6s6Hm--NbPv0Q42MaY7-16" value="Producer A1" style="rounded=0;whiteSpace=wrap;html=1;fillColor=#b1ddf0;strokeColor=#10739e;" vertex="1" parent="1">
          <mxGeometry x="-120" y="290" width="120" height="60" as="geometry" />
        </mxCell>
        <mxCell id="-6s6Hm--NbPv0Q42MaY7-20" style="rounded=0;orthogonalLoop=1;jettySize=auto;html=1;entryX=0;entryY=0.5;entryDx=0;entryDy=0;" edge="1" parent="1" source="-6s6Hm--NbPv0Q42MaY7-16" target="-6s6Hm--NbPv0Q42MaY7-3">
          <mxGeometry relative="1" as="geometry" />
        </mxCell>
        <mxCell id="-6s6Hm--NbPv0Q42MaY7-26" value="Message 2" style="edgeLabel;html=1;align=center;verticalAlign=middle;resizable=0;points=[];" vertex="1" connectable="0" parent="-6s6Hm--NbPv0Q42MaY7-20">
          <mxGeometry x="-0.2319" y="1" relative="1" as="geometry">
            <mxPoint as="offset" />
          </mxGeometry>
        </mxCell>
        <mxCell id="-6s6Hm--NbPv0Q42MaY7-23" style="rounded=0;orthogonalLoop=1;jettySize=auto;html=1;entryX=0;entryY=0.5;entryDx=0;entryDy=0;" edge="1" parent="1" source="-6s6Hm--NbPv0Q42MaY7-17" target="-6s6Hm--NbPv0Q42MaY7-5">
          <mxGeometry relative="1" as="geometry" />
        </mxCell>
        <mxCell id="-6s6Hm--NbPv0Q42MaY7-27" value="Message 4" style="edgeLabel;html=1;align=center;verticalAlign=middle;resizable=0;points=[];" vertex="1" connectable="0" parent="-6s6Hm--NbPv0Q42MaY7-23">
          <mxGeometry x="-0.252" y="1" relative="1" as="geometry">
            <mxPoint as="offset" />
          </mxGeometry>
        </mxCell>
        <mxCell id="-6s6Hm--NbPv0Q42MaY7-17" value="Producer A1" style="rounded=0;whiteSpace=wrap;html=1;fillColor=#b1ddf0;strokeColor=#10739e;" vertex="1" parent="1">
          <mxGeometry x="-120" y="400" width="120" height="60" as="geometry" />
        </mxCell>
        <mxCell id="-6s6Hm--NbPv0Q42MaY7-21" style="rounded=0;orthogonalLoop=1;jettySize=auto;html=1;entryX=0;entryY=0.5;entryDx=0;entryDy=0;exitX=1;exitY=0.5;exitDx=0;exitDy=0;" edge="1" parent="1" source="-6s6Hm--NbPv0Q42MaY7-18" target="-6s6Hm--NbPv0Q42MaY7-4">
          <mxGeometry relative="1" as="geometry" />
        </mxCell>
        <mxCell id="-6s6Hm--NbPv0Q42MaY7-28" value="Message 3" style="edgeLabel;html=1;align=center;verticalAlign=middle;resizable=0;points=[];" vertex="1" connectable="0" parent="-6s6Hm--NbPv0Q42MaY7-21">
          <mxGeometry x="-0.2682" y="-3" relative="1" as="geometry">
            <mxPoint y="-1" as="offset" />
          </mxGeometry>
        </mxCell>
        <mxCell id="-6s6Hm--NbPv0Q42MaY7-18" value="Producer A3" style="rounded=0;whiteSpace=wrap;html=1;fillColor=#b1ddf0;strokeColor=#10739e;" vertex="1" parent="1">
          <mxGeometry x="-120" y="500" width="120" height="60" as="geometry" />
        </mxCell>
        <mxCell id="-6s6Hm--NbPv0Q42MaY7-29" value="Producer 发送消息，进入队列时采用轮询策略" style="shape=card;whiteSpace=wrap;html=1;fillColor=#ffff88;strokeColor=#36393d;align=left;" vertex="1" parent="1">
          <mxGeometry x="-140" y="575" width="170" height="95" as="geometry" />
        </mxCell>
        <mxCell id="-6s6Hm--NbPv0Q42MaY7-30" value="&lt;div style=&quot;&quot;&gt;&lt;span style=&quot;background-color: initial;&quot;&gt;Consumer消费消息时，同一个consumer group 下的多个consumer会均匀分配队列进行消费&lt;/span&gt;&lt;/div&gt;" style="shape=card;whiteSpace=wrap;html=1;fillColor=#ffff88;strokeColor=#36393d;align=left;" vertex="1" parent="1">
          <mxGeometry x="760" y="550" width="173" height="120" as="geometry" />
        </mxCell>
      </root>
    </mxGraphModel>
  </diagram>
</mxfile>
